<svg xmlns="http://www.w3.org/2000/svg" id="instagram_logo" width="37.931" height="37.931" data-name="instagram logo" viewBox="0 0 37.931 37.931">
    <defs>
        <style>
            .cls-1{fill:#fff}
        </style>
    </defs>
    <g id="Group_719" data-name="Group 719">
        <g id="Group_718" data-name="Group 718">
            <path id="Path_269" d="M26.078 0H11.854A11.855 11.855 0 0 0 0 11.854v14.224a11.855 11.855 0 0 0 11.854 11.853h14.224a11.855 11.855 0 0 0 11.853-11.853V11.854A11.855 11.855 0 0 0 26.078 0zm8.3 26.078a8.307 8.307 0 0 1-8.3 8.3H11.854a8.307 8.307 0 0 1-8.3-8.3V11.854a8.307 8.307 0 0 1 8.3-8.3h14.224a8.307 8.307 0 0 1 8.3 8.3z" class="cls-1" data-name="Path 269"/>
        </g>
    </g>
    <g id="Group_721" data-name="Group 721" transform="translate(9.483 9.483)">
        <g id="Group_720" data-name="Group 720">
            <path id="Path_270" d="M137.483 128a9.483 9.483 0 1 0 9.483 9.483 9.483 9.483 0 0 0-9.483-9.483zm0 15.41a5.927 5.927 0 1 1 5.927-5.927 5.935 5.935 0 0 1-5.927 5.927z" class="cls-1" data-name="Path 270" transform="translate(-128 -128)"/>
        </g>
    </g>
    <g id="Group_723" data-name="Group 723" transform="translate(27.896 7.508)">
        <g id="Group_722" data-name="Group 722">
            <ellipse id="Ellipse_325" cx="1.264" cy="1.264" class="cls-1" data-name="Ellipse 325" rx="1.264" ry="1.264"/>
        </g>
    </g>
</svg>
