<svg xmlns="http://www.w3.org/2000/svg" xmlns:xlink="http://www.w3.org/1999/xlink" width="78" height="78" viewBox="0 0 78 78">
  <defs>
    <filter id="Shadow_04dp" x="0" y="0" width="78" height="78" filterUnits="userSpaceOnUse">
      <feOffset dy="4" input="SourceAlpha"/>
      <feGaussianBlur stdDeviation="2.5" result="blur"/>
      <feFlood flood-opacity="0.141"/>
      <feComposite operator="in" in2="blur"/>
      <feComposite in="SourceGraphic"/>
    </filter>
  </defs>
  <g id="Group_2985" data-name="Group 2985" transform="translate(-872.5 -234.5)">
    <g id="Group_780" data-name="Group 780" transform="translate(880 238.123)">
      <g transform="matrix(1, 0, 0, 1, -7.5, -3.62)" filter="url(#Shadow_04dp)">
        <rect id="Shadow_04dp-2" data-name="Shadow / 04dp" width="63" height="63" rx="31.5" transform="translate(7.5 3.5)" fill="#700203"/>
      </g>
    </g>
    <path id="Path_1997" data-name="Path 1997" d="M20408.4,2140.252v28.792a2.909,2.909,0,0,0,.285,1.156,3.453,3.453,0,0,0,1.863,1.859,2.9,2.9,0,0,0,1.156.287h6.316a.968.968,0,0,0,.928-.608,1.22,1.22,0,0,0,.094-.448,1.115,1.115,0,0,0-.084-.445,1.043,1.043,0,0,0-1.016-.629l-5.2,0a2.958,2.958,0,0,1-1.605-.312,1.54,1.54,0,0,1-.609-1.425v-27.67a1.559,1.559,0,0,1,1.734-1.734h22.551a1.6,1.6,0,0,1,1.383.552,2.479,2.479,0,0,1,.354,1.5l-.01,7.259a2.823,2.823,0,0,0,.09,1.1,1.045,1.045,0,0,0,.641.581,1.12,1.12,0,0,0,.58.009,1.236,1.236,0,0,0,.518-.26.817.817,0,0,0,.309-.615v-8.957a3.073,3.073,0,0,0-.564-1.675,3.831,3.831,0,0,0-1.443-1.28,4.155,4.155,0,0,0-.7-.256,2.409,2.409,0,0,0-.6-.093h-23.668a2.9,2.9,0,0,0-1.156.287,3.9,3.9,0,0,0-1.117.746,4,4,0,0,0-.746,1.112A2.917,2.917,0,0,0,20408.4,2140.252Zm6.4,20.634a1.428,1.428,0,0,0,.271.886.814.814,0,0,0,.635.337h8a.816.816,0,0,0,.633-.337,1.453,1.453,0,0,0,.27-.886,1.117,1.117,0,0,0-.906-.9h-8a1.051,1.051,0,0,0-.9.9Zm0-7.677a1.433,1.433,0,0,0,.271.886.82.82,0,0,0,.635.337h13.115a.816.816,0,0,0,.633-.337,1.433,1.433,0,0,0,.27-.886,1.117,1.117,0,0,0-.906-.9H20415.7a.921.921,0,0,0-.592.308.937.937,0,0,0-.311.6Zm0-7.677a1.438,1.438,0,0,0,.271.886.82.82,0,0,0,.635.337h13.115a.816.816,0,0,0,.633-.337,1.428,1.428,0,0,0,.27-.886.922.922,0,0,0-.312-.594.933.933,0,0,0-.594-.31H20415.7a.915.915,0,0,0-.592.31.928.928,0,0,0-.311.594Zm10.316,26.47c0,.723.346.968.818.968a7.361,7.361,0,0,0,2.66-.936l.076-.039a5.8,5.8,0,0,0,1.2-.73,6.927,6.927,0,0,0,.881-.975l6.031-7.55c1.225-1.549,2.457-3.109,3.641-4.534a2.536,2.536,0,0,0,.3-.459,2.509,2.509,0,0,0,.248-1.585,2.3,2.3,0,0,0-.791-1.366,2.412,2.412,0,0,0-.432-.283,2.446,2.446,0,0,0-1.252-.253,2.223,2.223,0,0,0-1.168.4c-.586.423-4.246,5.117-5.07,6.175-1.687,2.153-3.436,4.267-5.133,6.413a9.1,9.1,0,0,0-.941,1.357,9.757,9.757,0,0,0-.641,1.6c-.074.221-.186.565-.277.906a4.177,4.177,0,0,0-.16.9Z" transform="translate(-19513.207 -1885.438)" fill="#fff" fill-rule="evenodd"/>
  </g>
</svg>
