<svg xmlns="http://www.w3.org/2000/svg" width="31" height="31" viewBox="0 0 31 31">
  <g id="Group_2935" data-name="Group 2935" transform="translate(0.085 -0.09)">
    <g id="_1761788535456" transform="translate(5.685 2.764)">
      <g id="Group_690" data-name="Group 690" transform="translate(0 0)">
        <path id="Path_566" data-name="Path 566" d="M4851.37,3946.607l-1.441-16.229a.694.694,0,0,0-.689-.633h-2.965a4.973,4.973,0,0,0-9.945,0h-2.965a.691.691,0,0,0-.69.633l-1.44,16.229c0,.021,0,.042,0,.062a3.587,3.587,0,0,0,3.779,3.351h12.59a3.587,3.587,0,0,0,3.778-3.351.244.244,0,0,0-.005-.062Zm-10.068-20.368a3.586,3.586,0,0,1,3.582,3.505h-7.166A3.588,3.588,0,0,1,4841.3,3926.239Zm6.3,22.392h-12.591a2.218,2.218,0,0,1-2.389-1.931l1.379-15.56h2.327v2.11a.695.695,0,0,0,1.39,0v-2.11h7.17v2.11a.7.7,0,0,0,1.39,0v-2.11h2.326l1.385,15.56a2.222,2.222,0,0,1-2.389,1.931Z" transform="translate(-4831.229 -3924.85)" fill-rule="evenodd"/>
      </g>
    </g>
    <rect id="Rectangle_3584" data-name="Rectangle 3584" width="31" height="31" transform="translate(-0.085 0.09)" fill="none"/>
  </g>
</svg>
