<svg xmlns="http://www.w3.org/2000/svg" width="15.891" height="15.225" viewBox="0 0 15.891 15.225">
    <defs>
        <style>
            .cls-1{fill:#1a1a1a}
        </style>
    </defs>
    <path id="Star_free" d="M15.546 7.947A1.14 1.14 0 0 0 14.914 6l-3.848-.559a.5.5 0 0 1-.379-.275L8.968 1.682a1.14 1.14 0 0 0-2.044 0L5.2 5.169a.5.5 0 0 1-.379.275L.977 6a1.139 1.139 0 0 0-.632 1.947l2.784 2.714a.5.5 0 0 1 .145.445l-.657 3.832a1.14 1.14 0 0 0 1.653 1.2l3.442-1.808a.5.5 0 0 1 .468 0l3.441 1.809a1.14 1.14 0 0 0 1.653-1.2l-.657-3.832a.5.5 0 0 1 .145-.445z" class="cls-1" data-name="Star free" transform="translate(0 -1.047)"/>
</svg>
