<svg xmlns="http://www.w3.org/2000/svg" id="twitter_logo" width="47.87" height="38.884" data-name="twitter logo" viewBox="0 0 47.87 38.884">
    <defs>
        <style>
            .cls-1{fill:#fff}
        </style>
    </defs>
    <g id="Group_724" data-name="Group 724">
        <path id="Path_271" d="M47.871 62.042a19.611 19.611 0 0 1-5.639 1.547 9.861 9.861 0 0 0 4.316-5.429 19.8 19.8 0 0 1-6.24 2.384A9.828 9.828 0 0 0 23.575 69.5 27.88 27.88 0 0 1 3.336 59.236a9.832 9.832 0 0 0 3.039 13.108 9.821 9.821 0 0 1-4.448-1.232v.123A9.83 9.83 0 0 0 9.8 80.863a9.947 9.947 0 0 1-2.587.344 9.426 9.426 0 0 1-1.849-.182 9.825 9.825 0 0 0 9.171 6.82 19.7 19.7 0 0 1-12.2 4.2A20.872 20.872 0 0 1 0 91.907a27.758 27.758 0 0 0 15.052 4.418c18.065 0 27.939-14.963 27.939-27.939l-.033-1.271a19.61 19.61 0 0 0 4.913-5.073z" class="cls-1" data-name="Path 271" transform="translate(-.001 -57.441)"/>
    </g>
</svg>
