<svg xmlns="http://www.w3.org/2000/svg" xmlns:xlink="http://www.w3.org/1999/xlink" width="78" height="78" viewBox="0 0 78 78">
  <defs>
    <filter id="Shadow_04dp" x="0" y="0" width="78" height="78" filterUnits="userSpaceOnUse">
      <feOffset dy="4" input="SourceAlpha"/>
      <feGaussianBlur stdDeviation="2.5" result="blur"/>
      <feFlood flood-opacity="0.141"/>
      <feComposite operator="in" in2="blur"/>
      <feComposite in="SourceGraphic"/>
    </filter>
  </defs>
  <g id="Group_2983" data-name="Group 2983" transform="translate(-872.5 -328.5)">
    <g id="Group_2942" data-name="Group 2942" transform="translate(880 332.123)">
      <g id="Group_2982" data-name="Group 2982">
        <g transform="matrix(1, 0, 0, 1, -7.5, -3.62)" filter="url(#Shadow_04dp)">
          <rect id="Shadow_04dp-2" data-name="Shadow / 04dp" width="63" height="63" rx="31.5" transform="translate(7.5 3.5)" fill="#700203"/>
        </g>
      </g>
    </g>
    <g id="_2667101853152" transform="translate(895.936 344.594)">
      <g id="Group_144" data-name="Group 144">
        <g id="Group_143" data-name="Group 143">
          <path id="Path_380" data-name="Path 380" d="M20437.713,5663.4h.248a7.169,7.169,0,0,0,5.48-2.37c2.992-3.374,2.494-9.158,2.441-9.709-.193-4.144-2.152-6.125-3.77-7.051a8.621,8.621,0,0,0-4.182-1.1h-.133a8.652,8.652,0,0,0-4.182,1.065c-1.633.924-3.623,2.908-3.816,7.082-.057.551-.553,6.335,2.439,9.709A7.15,7.15,0,0,0,20437.713,5663.4Zm-5.838-11.885c0-.022.008-.047.008-.063.258-5.574,4.213-6.171,5.908-6.171h.092c2.1.046,5.67.9,5.908,6.171a.129.129,0,0,0,.01.063c.006.055.549,5.341-1.922,8.123a5.093,5.093,0,0,1-4,1.664h-.078a5.073,5.073,0,0,1-3.994-1.664C20431.34,5656.866,20431.867,5651.558,20431.875,5651.511Z" transform="translate(-20421.863 -5643.17)" fill="#fff" fill-rule="evenodd"/>
          <path id="Path_381" data-name="Path 381" d="M20422.816,5752.318v-.021c0-.063-.008-.123-.008-.194-.049-1.538-.15-5.138-3.523-6.289-.025-.008-.055-.014-.076-.021a22.468,22.468,0,0,1-6.455-2.937,1.049,1.049,0,0,0-1.205,1.717,24.258,24.258,0,0,0,7.1,3.243c1.813.646,2.014,2.58,2.064,4.351a1.035,1.035,0,0,0,.012.194,14.03,14.03,0,0,1-.168,2.4,31.036,31.036,0,0,1-27.416-.008,13.286,13.286,0,0,1-.162-2.4c0-.062.006-.123.006-.194.055-1.773.258-3.708,2.068-4.352a24.5,24.5,0,0,0,7.1-3.242,1.05,1.05,0,0,0-1.209-1.717,22.122,22.122,0,0,1-6.447,2.939c-.033.008-.057.016-.082.023-3.373,1.159-3.473,4.758-3.521,6.289,0,.071,0,.132-.006.2v.021a11.78,11.78,0,0,0,.4,3.521.978.978,0,0,0,.4.49c.234.156,5.822,3.716,15.172,3.716s14.943-3.567,15.176-3.716a1.066,1.066,0,0,0,.406-.49,12.487,12.487,0,0,0,.371-3.513Z" transform="translate(-20390.881 -5722.499)" fill="#fff" fill-rule="evenodd"/>
        </g>
      </g>
    </g>
  </g>
</svg>
