<svg xmlns="http://www.w3.org/2000/svg" width="27" height="27" viewBox="0 0 27 27">
  <g id="Icon_Visibility_Filled" data-name="Icon / Visibility / Filled" transform="translate(-0.091 0.383)" opacity="0.5">
    <path id="Path_988" data-name="Path 988" d="M25-39c-5.621,0-10.421,4.058-12.365,8.993,1.945,4.935,6.745,7.869,12.365,7.869s10.421-2.934,12.365-7.869C35.423-34.942,30.623-39,25-39Zm0,14.614a5.623,5.623,0,0,1-5.621-5.621A5.623,5.623,0,0,1,25-35.628a5.623,5.623,0,0,1,5.621,5.621A5.623,5.623,0,0,1,25-24.386Zm0-8.993a3.368,3.368,0,0,0-3.372,3.372A3.368,3.368,0,0,0,25-26.635a3.368,3.368,0,0,0,3.372-3.372A3.368,3.368,0,0,0,25-33.379Z" transform="translate(-11.513 44.621)"/>
    <rect id="Box" width="27" height="27" transform="translate(0.091 -0.383)" fill="none"/>
  </g>
</svg>
