<svg xmlns="http://www.w3.org/2000/svg" width="37.931" height="37.931" viewBox="0 0 37.931 37.931">
    <defs>
        <style>
            .cls-1{fill:#fff}
        </style>
    </defs>
    <path id="facebook_logo" d="M32.822 0H5.113A5.111 5.111 0 0 0 0 5.111V32.82a5.111 5.111 0 0 0 5.111 5.111h13.668l.021-13.554h-3.519a.831.831 0 0 1-.831-.828l-.017-4.369a.831.831 0 0 1 .831-.834h3.515v-4.222c0-4.9 2.992-7.567 7.363-7.567h3.586a.831.831 0 0 1 .831.831v3.684a.831.831 0 0 1-.83.831h-2.2c-2.377 0-2.837 1.129-2.837 2.787v3.655h5.223a.831.831 0 0 1 .825.929l-.518 4.369a.831.831 0 0 1-.825.733h-4.683l-.024 13.555h8.131a5.111 5.111 0 0 0 5.111-5.111V5.111A5.111 5.111 0 0 0 32.822 0z" class="cls-1" data-name="facebook logo" transform="translate(-.002)"/>
</svg>
