<svg xmlns="http://www.w3.org/2000/svg" width="38.644" height="38.645" viewBox="0 0 38.644 38.645">
    <defs>
        <style>
            .cls-1{fill:#fff}
        </style>
    </defs>
    <g id="Google_Plus" data-name="Google Plus" transform="translate(-.003)">
        <path id="Path_1008" d="M32.207 9.661V3.22h-3.22v6.44h-6.441v3.221h6.441v6.441h3.22v-6.44h6.44V31.4a7.259 7.259 0 0 1-7.247 7.245H19.627a8.259 8.259 0 0 0 .981-3.95 8.431 8.431 0 0 0-.553-3.082 7.381 7.381 0 0 0-1.4-2.34q-.843-.917-1.811-1.786t-1.812-1.5a6.779 6.779 0 0 1-1.4-1.371 2.494 2.494 0 0 1-.553-1.5 2.882 2.882 0 0 1 .579-1.711 9.647 9.647 0 0 1 1.409-1.547q.83-.743 1.648-1.623a7.421 7.421 0 0 0 1.4-2.34 8.875 8.875 0 0 0 .579-3.3 10.6 10.6 0 0 0-.667-3.661 7.573 7.573 0 0 0-1.9-2.982 2.006 2.006 0 0 0-.352-.277 7.88 7.88 0 0 0-.314-.189.921.921 0 0 1-.252-.239 2.482 2.482 0 0 1-.264-.428h3.4l3.4-1.61h-11a18.031 18.031 0 0 0-6.151.969A10.311 10.311 0 0 0 0 7.548a7.573 7.573 0 0 1 2.041-5.359A6.8 6.8 0 0 1 7.249 0H31.4a6.978 6.978 0 0 1 5.119 2.126 6.979 6.979 0 0 1 2.126 5.12v2.415zM5.01 18.379a6.465 6.465 0 0 0 1.962 1.7 4.886 4.886 0 0 0 2.44.654 4.056 4.056 0 0 0 3.535-1.522 6.771 6.771 0 0 0 1.094-4.038 13.89 13.89 0 0 0-.4-3.22 15.6 15.6 0 0 0-1.184-3.273 7.364 7.364 0 0 0-2.113-2.617A4.769 4.769 0 0 0 7.35 5.032a4.275 4.275 0 0 0-3.636 1.736 6.745 6.745 0 0 0-1.3 4.151 11.534 11.534 0 0 0 .289 2.491 12.872 12.872 0 0 0 .897 2.617 12.2 12.2 0 0 0 1.41 2.352zm3.094 5.9a7.928 7.928 0 0 1 .528-2.164 13.588 13.588 0 0 1-1.761.126A8.669 8.669 0 0 1 0 19.272v10.894a22.535 22.535 0 0 1 9.686-2.139A6.388 6.388 0 0 1 8.1 24.279zm8.6 10.654a3.161 3.161 0 0 0-.44-.868q-.315-.452-.528-.767a4.823 4.823 0 0 0-.667-.742q-.453-.427-.692-.641t-.805-.641q-.565-.428-.78-.578t-.83-.579q-.617-.428-.767-.528a11.456 11.456 0 0 0-1.233-.05 20.135 20.135 0 0 0-2.692.176 16.612 16.612 0 0 0-2.692.6 8.6 8.6 0 0 0-2.516 1.245A5.721 5.721 0 0 0 .33 33.512a6.961 6.961 0 0 0 2.6 3.71 7.084 7.084 0 0 0 4.315 1.422h9.565a6.133 6.133 0 0 0 .251-1.786 4.476 4.476 0 0 0-.114-1.019q-.113-.49-.239-.906z" class="cls-1" data-name="Path 1008"/>
    </g>
</svg>
