<svg xmlns="http://www.w3.org/2000/svg" xmlns:xlink="http://www.w3.org/1999/xlink" width="78" height="78" viewBox="0 0 78 78">
  <defs>
    <filter id="Shadow_04dp" x="0" y="0" width="78" height="78" filterUnits="userSpaceOnUse">
      <feOffset dy="4" input="SourceAlpha"/>
      <feGaussianBlur stdDeviation="2.5" result="blur"/>
      <feFlood flood-opacity="0.141"/>
      <feComposite operator="in" in2="blur"/>
      <feComposite in="SourceGraphic"/>
    </filter>
  </defs>
  <g id="Group_2984" data-name="Group 2984" transform="translate(-918.5 -293.5)">
    <g id="Group_2942" data-name="Group 2942" transform="translate(927 297.123)">
      <g transform="matrix(1, 0, 0, 1, -8.5, -3.62)" filter="url(#Shadow_04dp)">
        <rect id="Shadow_04dp-2" data-name="Shadow / 04dp" width="63" height="63" rx="31.5" transform="translate(7.5 3.5)" fill="#700203"/>
      </g>
    </g>
    <path id="Union_1" data-name="Union 1" d="M-10197.284,33.546a2.21,2.21,0,0,1-.643-1.549,2.2,2.2,0,0,1,.643-1.547,2.2,2.2,0,0,1,1.547-.64,2.2,2.2,0,0,1,1.545.64,2.2,2.2,0,0,1,.643,1.547,2.214,2.214,0,0,1-.643,1.549,2.2,2.2,0,0,1-1.545.638A2.2,2.2,0,0,1-10197.284,33.546Zm-.643-10.2V18.087a4.14,4.14,0,0,1,3.263-4.057,4.867,4.867,0,0,0,3.8-5.12,4.894,4.894,0,0,0-4.525-4.523,4.857,4.857,0,0,0-3.683,1.3,4.841,4.841,0,0,0-1.555,3.573,2.186,2.186,0,0,1-2.187,2.187A2.188,2.188,0,0,1-10205,9.261a9.3,9.3,0,0,1,2.943-6.772,9.19,9.19,0,0,1,6.971-2.466,9.285,9.285,0,0,1,8.588,8.587,9.218,9.218,0,0,1-7.051,9.653v5.079a2.187,2.187,0,0,1-2.187,2.187A2.188,2.188,0,0,1-10197.927,23.342Z" transform="translate(11152.789 310.326)" fill="#fff"/>
  </g>
</svg>
