<svg xmlns="http://www.w3.org/2000/svg" width="32.851" height="38.916" viewBox="0 0 32.851 38.916">
    <defs>
        <style>
            .cls-1{fill:#fff}
        </style>
    </defs>
    <g id="youtube" transform="translate(-7.067)">
        <g id="Group_808" data-name="Group 808" transform="translate(7.067)">
            <path id="Path_1009" d="M39.349 41.008a4.15 4.15 0 0 0-3.549-3.227 110.367 110.367 0 0 0-12.3-.455 110.4 110.4 0 0 0-12.3.455 4.149 4.149 0 0 0-3.549 3.228 35.173 35.173 0 0 0-.579 7.765 35.167 35.167 0 0 0 .573 7.765 4.149 4.149 0 0 0 3.55 3.228 110.375 110.375 0 0 0 12.3.455 110.3 110.3 0 0 0 12.3-.455 4.15 4.15 0 0 0 3.55-3.228 35.194 35.194 0 0 0 .575-7.765 35.219 35.219 0 0 0-.571-7.766zm-22.912 1.929h-2.378v12.634h-2.208V42.937H9.517v-2.07h6.92zm6 12.634h-1.988v-1.2a3.181 3.181 0 0 1-2.269 1.346 1.218 1.218 0 0 1-1.279-.814 5.592 5.592 0 0 1-.175-1.629v-8.659h1.985v8.066a6.181 6.181 0 0 0 .018.772c.048.308.2.464.464.464.4 0 .815-.307 1.255-.93v-8.372h1.987v10.956zm7.542-3.288a8.752 8.752 0 0 1-.2 2.208 1.572 1.572 0 0 1-1.586 1.231 2.705 2.705 0 0 1-2.052-1.212v1.062h-1.987v-14.7h1.985v4.8a2.689 2.689 0 0 1 2.052-1.188 1.57 1.57 0 0 1 1.586 1.236 8.413 8.413 0 0 1 .2 2.2zm7.492-1.828H33.5V52.4c0 1.014.332 1.521 1.014 1.521a.853.853 0 0 0 .887-.8 12.49 12.49 0 0 0 .045-1.345h2.024v.29c0 .64-.024 1.081-.042 1.279a2.829 2.829 0 0 1-.464 1.189 2.748 2.748 0 0 1-2.4 1.188 2.843 2.843 0 0 1-2.4-1.122 4.244 4.244 0 0 1-.637-2.576v-3.837a4.264 4.264 0 0 1 .614-2.581 2.822 2.822 0 0 1 2.378-1.123 2.757 2.757 0 0 1 2.342 1.123 4.306 4.306 0 0 1 .615 2.581v2.268z" class="cls-1" data-name="Path 1009" transform="translate(-7.067 -21.306)"/>
            <path id="Path_1010" d="M69.653 58.163q-1 0-1 1.52V60.7h1.985v-1.017c.003-1.013-.328-1.52-.985-1.52z" class="cls-1" data-name="Path 1010" transform="translate(-42.224 -33.201)"/>
            <path id="Path_1011" d="M52.5 58.163a1.422 1.422 0 0 0-.99.483v6.677a1.416 1.416 0 0 0 .99.489c.573 0 .863-.489.863-1.479v-4.675c-.004-.988-.295-1.495-.863-1.495z" class="cls-1" data-name="Path 1011" transform="translate(-32.433 -33.201)"/>
            <path id="Path_1012" d="M54.44 20.044a3.223 3.223 0 0 0 2.292-1.36v1.208h2.006V8.82h-2.006v8.462c-.445.628-.866.939-1.267.939-.269 0-.427-.159-.47-.47a4.653 4.653 0 0 1-.024-.78V8.82h-2v8.755a5.594 5.594 0 0 0 .178 1.646 1.232 1.232 0 0 0 1.291.823z" class="cls-1" data-name="Path 1012" transform="translate(-33.27 -5.035)"/>
            <path id="Path_1013" d="M20.144 8.84v6.017h2.225V8.84L25.045 0H22.8l-1.523 5.835L19.7 0h-2.343c.469 1.377.957 2.761 1.426 4.14a36.6 36.6 0 0 1 1.361 4.7z" class="cls-1" data-name="Path 1013" transform="translate(-12.941)"/>
            <path id="Path_1014" d="M38.277 19.866a2.735 2.735 0 0 0 2.34-1.133 4.331 4.331 0 0 0 .623-2.6v-3.881a4.339 4.339 0 0 0-.623-2.608 2.975 2.975 0 0 0-4.676 0 4.3 4.3 0 0 0-.628 2.608v3.877a4.292 4.292 0 0 0 .628 2.6 2.734 2.734 0 0 0 2.336 1.137zm-.957-8.016c0-1.024.311-1.535.957-1.535s.957.51.957 1.535v4.657c0 1.024-.31 1.537-.957 1.537s-.957-.512-.957-1.537z" class="cls-1" data-name="Path 1014" transform="translate(-23.191 -4.857)"/>
        </g>
    </g>
</svg>
